<svg width="16" height="21" viewBox="0 0 16 21" fill="none" xmlns="http://www.w3.org/2000/svg">
<g clip-path="url(#clip0_86_1207)">
<path d="M12.8867 10.9961C12.8789 9.5625 13.5273 8.48047 14.8398 7.68359C14.1055 6.63281 12.9961 6.05469 11.5312 5.94141C10.1445 5.83203 8.62891 6.75 8.07422 6.75C7.48828 6.75 6.14453 5.98047 5.08984 5.98047C2.91016 6.01562 0.59375 7.71875 0.59375 11.1836C0.59375 12.207 0.78125 13.2643 1.15625 14.3555C1.65625 15.7891 3.46094 19.3047 5.34375 19.2461C6.32812 19.2227 7.02344 18.5469 8.30469 18.5469C9.54688 18.5469 10.1914 19.2461 11.2891 19.2461C13.1875 19.2188 14.8203 16.0234 15.2969 14.5859C12.75 13.3867 12.8867 11.0703 12.8867 10.9961ZM10.6758 4.58203C11.7422 3.31641 11.6445 2.16406 11.6133 1.75C10.6719 1.80469 9.58203 2.39063 8.96094 3.11328C8.27734 3.88672 7.875 4.84375 7.96094 5.92188C8.98047 6 9.91016 5.47656 10.6758 4.58203Z" fill="black"/>
</g>
<defs>
<clipPath id="clip0_86_1207">
<path d="M0.4375 0.5H15.4375V20.5H0.4375V0.5Z" fill="white"/>
</clipPath>
</defs>
</svg>
