<svg width="20" height="28" viewBox="0 0 20 28" fill="none" xmlns="http://www.w3.org/2000/svg">
<path d="M19.7031 28H0.640625V0H19.7031V28Z" fill="none"/>
<g clip-path="url(#clip0_86_1200)">
<path d="M19.7031 13.7266C19.7031 19.2539 15.918 23.1875 10.3281 23.1875C4.96875 23.1875 0.640625 18.8594 0.640625 13.5C0.640625 8.14062 4.96875 3.8125 10.3281 3.8125C12.9375 3.8125 15.1328 4.76953 16.8242 6.34766L14.1875 8.88281C10.7383 5.55469 4.32422 8.05469 4.32422 13.5C4.32422 16.8789 7.02344 19.6172 10.3281 19.6172C14.1641 19.6172 15.6016 16.8672 15.8281 15.4414H10.3281V12.1094H19.5508C19.6406 12.6055 19.7031 13.082 19.7031 13.7266Z" fill="#EF4444"/>
</g>
<defs>
<clipPath id="clip0_86_1200">
<path d="M0.640625 3.5H19.7031V23.5H0.640625V3.5Z" fill="white"/>
</clipPath>
</defs>
</svg>
