<svg width="19" height="16" viewBox="0 0 19 16" fill="none" xmlns="http://www.w3.org/2000/svg">
<path d="M5.64564 0.232684C6.01299 0.56225 6.04267 1.1214 5.71243 1.488L3.04082 4.45039C2.87755 4.63183 2.6475 4.73922 2.4026 4.74292C2.1577 4.74662 1.92393 4.65405 1.74954 4.48371L0.261596 3.00252C-0.0834879 2.65444 -0.0834879 2.09158 0.261596 1.7435C0.606679 1.39542 1.1744 1.39542 1.51948 1.7435L2.33952 2.56186L4.38404 0.295635C4.71429 -0.0709608 5.27458 -0.100585 5.64193 0.228981L5.64564 0.232684ZM5.64564 6.15746C6.01299 6.48703 6.04267 7.04618 5.71243 7.41277L3.04082 10.3752C2.87755 10.5566 2.6475 10.664 2.4026 10.6677C2.1577 10.6714 1.92393 10.5788 1.74954 10.4085L0.261596 8.92729C-0.0871985 8.57921 -0.0871985 8.01636 0.261596 7.67198C0.61039 7.32761 1.1744 7.3239 1.51948 7.67198L2.33952 8.49034L4.38404 6.22412C4.71429 5.85752 5.27458 5.8279 5.64193 6.15746H5.64564ZM8.31354 2.37301C8.31354 1.71758 8.84416 1.18805 9.50093 1.18805H17.8126C18.4694 1.18805 19 1.71758 19 2.37301C19 3.02844 18.4694 3.55797 17.8126 3.55797H9.50093C8.84416 3.55797 8.31354 3.02844 8.31354 2.37301ZM8.31354 8.29779C8.31354 7.64236 8.84416 7.11283 9.50093 7.11283H17.8126C18.4694 7.11283 19 7.64236 19 8.29779C19 8.95322 18.4694 9.48274 17.8126 9.48274H9.50093C8.84416 9.48274 8.31354 8.95322 8.31354 8.29779ZM5.93878 14.2226C5.93878 13.5671 6.46939 13.0376 7.12616 13.0376H17.8126C18.4694 13.0376 19 13.5671 19 14.2226C19 14.878 18.4694 15.4075 17.8126 15.4075H7.12616C6.46939 15.4075 5.93878 14.878 5.93878 14.2226ZM1.78293 12.4451C2.2553 12.4451 2.70833 12.6324 3.04234 12.9657C3.37636 13.2991 3.56401 13.7512 3.56401 14.2226C3.56401 14.694 3.37636 15.1461 3.04234 15.4794C2.70833 15.8127 2.2553 16 1.78293 16C1.31056 16 0.857537 15.8127 0.52352 15.4794C0.189504 15.1461 0.00185528 14.694 0.00185528 14.2226C0.00185528 13.7512 0.189504 13.2991 0.52352 12.9657C0.857537 12.6324 1.31056 12.4451 1.78293 12.4451Z" fill="#A3A3A3"/>
</svg>
